<?xml version="1.0" encoding="utf-8"?>
<!-- Generator: Adobe Illustrator 26.0.2, SVG Export Plug-In . SVG Version: 6.00 Build 0)  -->
<svg version="1.1" id="Layer_1" xmlns="http://www.w3.org/2000/svg" xmlns:xlink="http://www.w3.org/1999/xlink" x="0px" y="0px"
	 viewBox="0 0 274.17 69.6" style="enable-background:new 0 0 274.17 69.6;" xml:space="preserve">
<style type="text/css">
	.st0{fill:none;}
	.st1{fill-rule:evenodd;clip-rule:evenodd;}
	.st2{fill-rule:evenodd;clip-rule:evenodd;fill:#464696;}
</style>
<rect x="-10.75" y="-2.73" fill="#FFFFFF" class="st0" width="295.67" height="75.06"/>
<g>
	<polygon fill="#FFFFFF" points="154.35,22.28 154.35,49.31 152.19,49.31 152.19,22.28 142.08,22.28 142.08,20.29 164.46,20.29 164.46,22.28 	"/>
	<path fill="#FFFFFF" d="M181.15,49.76c-6.96,0-11.9-4.39-11.9-12.52V20.29h2.15v16.75c0,6.84,3.69,10.78,9.83,10.78c5.89,0,9.66-3.57,9.66-10.57
		V20.29h2.16V37C193.05,45.33,188.2,49.76,181.15,49.76"/>
	<path fill="#FFFFFF" d="M207.49,49.31h-9.66V20.29h9.66c9.12,0,15.42,6.26,15.42,14.43v0.08C222.91,42.97,216.61,49.31,207.49,49.31 M220.68,34.8
		c0-6.88-5.1-12.52-13.18-12.52h-7.5v25.04h7.5c8.08,0,13.18-5.51,13.18-12.44V34.8z"/>
	<rect fill="#FFFFFF" x="227.7" y="20.29" width="2.16" height="29.02"/>
	<path fill="#FFFFFF" d="M249.2,49.81c-8.79,0-14.55-7.01-14.55-14.92V34.8c0-7.92,5.84-15.01,14.63-15.01c8.79,0,14.55,7.01,14.55,14.92
		c0.04,0.04,0.04,0.04,0,0.08C263.83,42.72,257.99,49.81,249.2,49.81 M261.59,34.8c0-7.17-5.22-13.06-12.39-13.06
		c-7.17,0-12.31,5.8-12.31,12.97v0.08c0,7.17,5.22,13.06,12.39,13.06c7.17,0,12.31-5.8,12.31-12.97V34.8z"/>
	<path fill="#FFFFFF" class="st1" d="M116.87,44.96l1.41-1.61c3.19,2.94,6.13,4.3,10.39,4.3c4.35,0,7.33-2.44,7.33-5.75v-0.08
		c0-3.06-1.62-4.84-8.2-6.17c-6.95-1.41-9.77-3.77-9.77-8.15v-0.08c0-4.31,3.93-7.62,9.31-7.62c4.22,0,7,1.16,9.94,3.52l-1.37,1.7
		c-2.73-2.36-5.47-3.27-8.65-3.27c-4.26,0-7.08,2.44-7.08,5.46v0.08c0,3.06,1.57,4.93,8.44,6.33c6.71,1.37,9.52,3.77,9.52,7.99v0.08
		c0,4.68-4.01,7.9-9.6,7.9C123.91,49.6,120.35,48.07,116.87,44.96"/>
	<polygon fill="#FFFFFF" class="st1" points="4.74,20.23 9.55,20.23 25.39,40.67 25.39,20.23 30.5,20.23 30.5,49.79 26.15,49.79 9.85,28.76 
		9.85,49.79 4.74,49.79 	"/>
	<polygon fill="#FFFFFF" class="st1" points="62.17,49.79 56.43,49.79 47.52,27.07 38.65,49.79 33.03,49.79 45.32,20.02 49.88,20.02 	"/>
	<path fill="#FFFFFF" class="st1" d="M62.92,45.19l3.04-3.62c2.75,2.38,5.51,3.74,9.08,3.74c3.13,0,5.1-1.44,5.1-3.62v-0.08
		c0-2.06-1.15-3.16-6.5-4.4c-6.13-1.48-9.58-3.29-9.58-8.59v-0.08c0-4.93,4.11-8.35,9.83-8.35c4.19,0,7.52,1.27,10.44,3.62
		l-2.72,3.83c-2.59-1.93-5.18-2.96-7.81-2.96c-2.96,0-4.69,1.52-4.69,3.41v0.08c0,2.22,1.32,3.21,6.83,4.52
		c6.09,1.48,9.25,3.66,9.25,8.43v0.08c0,5.39-4.23,8.59-10.28,8.59C70.53,49.79,66.38,48.27,62.92,45.19"/>
	<polygon fill="#FFFFFF" class="st2" points="112.72,20.23 107.86,20.23 99.02,35.12 107.72,49.79 112.72,49.79 104.29,35.12 	"/>
	<polygon fill="#FFFFFF" class="st2" points="105.21,20.23 97.48,20.23 88.34,35.12 97.67,49.79 105.21,49.79 96.78,35.12 	"/>
	<polygon fill="#FFFFFF" class="st2" points="88.35,30.29 88.35,20.23 94.9,20.23 88.35,30.57 	"/>
	<polygon fill="#FFFFFF" class="st2" points="88.35,39.73 88.35,49.79 94.9,49.79 88.35,39.45 	"/>
</g>
<path fill="#FFFFFF" d="M265.12,11.42c0.9,0,1.78,0.23,2.64,0.69c0.86,0.46,1.52,1.12,2,1.98c0.48,0.86,0.72,1.76,0.72,2.69
	c0,0.92-0.23,1.81-0.71,2.66c-0.47,0.85-1.13,1.51-1.98,1.99c-0.85,0.47-1.74,0.71-2.67,0.71c-0.93,0-1.82-0.24-2.67-0.71
	c-0.85-0.47-1.51-1.13-1.98-1.99c-0.48-0.85-0.71-1.74-0.71-2.66c0-0.93,0.24-1.83,0.72-2.69c0.48-0.86,1.15-1.52,2.01-1.98
	C263.34,11.65,264.22,11.42,265.12,11.42 M265.12,12.31c-0.75,0-1.49,0.19-2.2,0.58c-0.71,0.39-1.27,0.94-1.67,1.66
	c-0.4,0.72-0.6,1.47-0.6,2.24c0,0.77,0.2,1.51,0.59,2.22c0.4,0.71,0.95,1.26,1.66,1.66c0.71,0.39,1.45,0.59,2.22,0.59
	c0.77,0,1.51-0.2,2.22-0.59c0.71-0.4,1.26-0.95,1.66-1.66c0.39-0.71,0.59-1.45,0.59-2.22c0-0.78-0.2-1.52-0.6-2.24
	c-0.4-0.72-0.96-1.27-1.67-1.66C266.6,12.5,265.87,12.31,265.12,12.31 M262.77,19.75v-5.77h1.98c0.68,0,1.17,0.05,1.47,0.16
	c0.3,0.11,0.55,0.29,0.72,0.56c0.18,0.26,0.27,0.55,0.27,0.84c0,0.42-0.15,0.79-0.45,1.1c-0.3,0.31-0.7,0.49-1.2,0.53
	c0.2,0.09,0.37,0.19,0.49,0.31c0.23,0.23,0.52,0.61,0.85,1.14l0.7,1.13h-1.14l-0.51-0.91c-0.4-0.72-0.73-1.16-0.97-1.34
	c-0.17-0.13-0.42-0.2-0.75-0.2h-0.55v2.45H262.77z M263.7,16.5h1.13c0.54,0,0.91-0.08,1.1-0.24c0.2-0.16,0.3-0.37,0.3-0.64
	c0-0.17-0.05-0.32-0.14-0.46c-0.09-0.14-0.23-0.24-0.39-0.3c-0.17-0.07-0.48-0.1-0.93-0.1h-1.06V16.5z"/>
</svg>
